<?xml version="1.0" encoding="UTF-8"?>
<svg id="Layer_2" data-name="Layer 2" xmlns="http://www.w3.org/2000/svg" xmlns:xlink="http://www.w3.org/1999/xlink" viewBox="0 0 427.52 175">
  <defs>
    <style>
      .cls-1 {
        fill: #02005c;
      }

      .cls-1, .cls-2, .cls-3 {
        stroke-width: 0px;
      }

      .cls-2 {
        fill: #000;
      }

      .cls-4 {
        clip-path: url(#clippath-2);
      }

      .cls-3 {
        fill: none;
      }

      .cls-5 {
        clip-path: url(#clippath-1);
      }

      .cls-6 {
        clip-path: url(#clippath);
      }
    </style>
    <clipPath id="clippath">
      <rect class="cls-3" x="280.23" y="2.24" width="113.77" height="153.33"/>
    </clipPath>
    <clipPath id="clippath-1">
      <rect class="cls-3" x="114.9" width="162.67" height="175"/>
    </clipPath>
    <clipPath id="clippath-2">
      <rect class="cls-3" width="104.23" height="158.24"/>
    </clipPath>
  </defs>
  <g id="Layer_1-2" data-name="Layer 1">
    <g id="_7ef21b04d1" data-name="7ef21b04d1">
      <g class="cls-6">
        <path class="cls-1" d="M383.67,21.7c.09.17,2.44,4.65,2.64,4.97l2.03,10.73c-.73,7.66-1.23,11.81-4.83,18.05-.16.22.07.56.31.53-.39.14-.91.27-1.08.69-3.67,5.82-10.2,10.95-15.8,13.61-.29-.1-.48.05-.54.43-.37.09-.9-.03-1.13.34-.53.69-1.61.43-2.23,1.12l-3.57,1.1c-.23.07-.24.42,0,.49,4.16,1.48,7.2,1.58,10.43,2.82,23.93,7.95,29.72,34.18,18.83,54.87-22.64,34.44-71.9,19.9-107.62,22.92.43-43.98-.3-98.35.33-150.95,43.96,2.32,80.56-8.73,102.25,18.28h-.01ZM314.75,28.4c-.58,13.08-.73,24.93-.49,35.53-.03.7.7.71,1.21.81,10.19-.23,22.64,2.21,30.7-4.92.24-.28,3.1-3.6,3.45-3.54.81-1.26,1.8-2.31,1.85-3.93,3.27-6.68.93-15.72-5.41-19.75.32-.19-.48-.56-.41-.2-8.9-5.95-20.61-3.46-30.91-4ZM315.13,90.31c-2.26,6.72-.06,17.27-.69,37.42,0,1.11.24,1.65.7,1.6,14.05-.54,30.77,3.38,40.07-9.32.43-.09.72-.4.88-.93,2.97-4.23,3.35-10.26,1.86-15.14,0,.08,0,.16-.01.23-.14-1.26-.41-3.23-1.48-3.3-7.66-14.1-22.45-10.17-41.33-10.56Z"/>
      </g>
      <g class="cls-5">
        <path class="cls-1" d="M260.97,53.36c4.94,25.08,3.13,52.42-11.58,74.05-12.17,15.13-12.74,6.68,8.8,27.48-.87.37,19.4,18.23,19.28,18.53,1.58,2.86-45.09.09-45.53,1.02-1.57.18-7.21-5.98-7.79-7.12-.78.2-11.43-11.17-12.06-11.45-30.88,3.06-66,.35-84.74-30.56.11.27.03.21-.27-.18-1.19-2.71-3.21-6.37-4.89-9.13.23,0,.14-.18-.28-.56C81.81,1.75,229.37-44.49,260.97,53.36ZM158.12,48.78c-25.44,42.23,14.56,108.27,59.61,66.07,16.57-23.04,15.44-65.24-11.09-81.38-17.1-7.75-39.99-2.56-48.52,15.31Z"/>
      </g>
      <g class="cls-4">
        <path class="cls-1" d="M97.32,6.67c-.49,9.97-.59,19.97-.3,29.99.23,2.45-4.02-1.61-4.56-1.6-10.81-5.43-21.99-7.94-33.91-7.51-24.3.16-31.94,20.72-9.32,31.52,25.87,11.21,59.36,23.31,54.2,59.17-3.75,37.27-48.95,42.14-78.91,37.4-8.03-1.13-15.91-3.41-23.66-6.87,1.16-10.52-.99-24.36.86-33.51,16.74,13.8,47.66,23.44,64.79,6.15,11.47-27.57-47.85-30.04-59-51.62C-23.86,9.17,50.13-11.09,97.32,6.67Z"/>
      </g>
      <path class="cls-2" d="M409.44,5.14v2.52h-4.4v12.71h-3V7.66h-4.4v-2.52h11.79Z"/>
      <path class="cls-2" d="M414.61,20.37h-2.77V5.14h3.94l3.85,11.19h.23l3.83-11.19h3.83v15.23h-2.85v-10.06l-.25-.04-3.52,10.1h-2.52l-3.52-10.1-.25.04v10.06Z"/>
    </g>
  </g>
</svg>