<svg xmlns="http://www.w3.org/2000/svg" xmlns:xlink="http://www.w3.org/1999/xlink" width="500" zoomAndPan="magnify" viewBox="0 0 375 374.999991" height="500" preserveAspectRatio="xMidYMid meet" version="1.2"><defs><clipPath id="7b9ef4502c"><path d="M 228 112 L 313.324219 112 L 313.324219 227 L 228 227 Z M 228 112 "/></clipPath><clipPath id="2340af3143"><path d="M 104 110.316406 L 226 110.316406 L 226 241.566406 L 104 241.566406 Z M 104 110.316406 "/></clipPath><clipPath id="9a010c0d9a"><path d="M 17.824219 110.316406 L 96 110.316406 L 96 229 L 17.824219 229 Z M 17.824219 110.316406 "/></clipPath></defs><g id="7ef21b04d1"><g clip-rule="nonzero" clip-path="url(#7b9ef4502c)"><path style=" stroke:none;fill-rule:nonzero;fill:#02005c;fill-opacity:1;" d="M 305.578125 126.59375 C 305.648438 126.722656 307.410156 130.078125 307.558594 130.324219 C 307.558594 130.324219 309.078125 138.375 309.078125 138.375 C 308.527344 144.121094 308.152344 147.234375 305.453125 151.910156 C 305.335938 152.074219 305.503906 152.328125 305.6875 152.308594 C 305.394531 152.410156 305.007812 152.507812 304.875 152.824219 C 302.121094 157.1875 297.222656 161.039062 293.023438 163.035156 C 292.804688 162.960938 292.664062 163.070312 292.617188 163.359375 C 292.339844 163.425781 291.941406 163.335938 291.773438 163.613281 C 291.375 164.132812 290.5625 163.9375 290.101562 164.453125 C 290.101562 164.453125 287.421875 165.277344 287.421875 165.277344 C 287.246094 165.332031 287.238281 165.59375 287.421875 165.644531 C 290.542969 166.753906 292.820312 166.832031 295.246094 167.761719 C 313.195312 173.726562 317.535156 193.394531 309.367188 208.914062 C 292.390625 234.742188 255.445312 223.839844 228.652344 226.101562 C 228.976562 193.117188 228.429688 152.335938 228.898438 112.886719 C 261.867188 114.625 289.320312 106.339844 305.585938 126.59375 Z M 253.886719 131.617188 C 253.453125 141.429688 253.335938 150.3125 253.519531 158.261719 C 253.5 158.785156 254.042969 158.792969 254.425781 158.871094 C 262.070312 158.699219 271.40625 160.53125 277.453125 155.183594 C 277.636719 154.972656 279.78125 152.480469 280.039062 152.527344 C 280.644531 151.585938 281.390625 150.792969 281.429688 149.578125 C 283.878906 144.570312 282.128906 137.789062 277.371094 134.765625 C 277.609375 134.625 277.007812 134.347656 277.066406 134.617188 C 270.390625 130.152344 261.605469 132.019531 253.886719 131.617188 Z M 254.171875 178.046875 C 252.476562 183.089844 254.128906 191 253.65625 206.109375 C 253.65625 206.945312 253.835938 207.34375 254.179688 207.308594 C 264.714844 206.902344 277.253906 209.839844 284.234375 200.316406 C 284.554688 200.246094 284.777344 200.019531 284.894531 199.621094 C 287.125 196.449219 287.40625 191.925781 286.289062 188.269531 C 286.289062 188.328125 286.289062 188.386719 286.28125 188.441406 C 286.175781 187.496094 285.972656 186.019531 285.171875 185.96875 C 279.425781 175.394531 268.335938 178.34375 254.171875 178.046875 Z M 254.171875 178.046875 "/></g><g clip-rule="nonzero" clip-path="url(#2340af3143)"><path style=" stroke:none;fill-rule:nonzero;fill:#02005c;fill-opacity:1;" d="M 213.554688 150.335938 C 217.257812 169.144531 215.902344 189.652344 204.871094 205.875 C 195.742188 217.222656 195.3125 210.886719 211.472656 226.484375 C 210.820312 226.761719 226.019531 240.160156 225.929688 240.382812 C 227.117188 242.527344 192.113281 240.453125 191.785156 241.148438 C 190.605469 241.28125 186.375 236.664062 185.941406 235.808594 C 185.359375 235.960938 177.371094 227.433594 176.898438 227.21875 C 153.742188 229.515625 127.398438 227.484375 113.34375 204.300781 C 113.425781 204.503906 113.363281 204.460938 113.140625 204.167969 C 112.246094 202.132812 110.734375 199.390625 109.472656 197.324219 C 109.644531 197.328125 109.574219 197.191406 109.261719 196.902344 C 79.183594 111.628906 189.851562 76.949219 213.554688 150.335938 Z M 136.414062 146.898438 C 117.332031 178.570312 147.332031 228.101562 181.121094 196.449219 C 193.546875 179.167969 192.703125 147.515625 172.804688 135.417969 C 159.980469 129.605469 142.8125 133.496094 136.414062 146.898438 Z M 136.414062 146.898438 "/></g><g clip-rule="nonzero" clip-path="url(#9a010c0d9a)"><path style=" stroke:none;fill-rule:nonzero;fill:#02005c;fill-opacity:1;" d="M 90.8125 115.316406 C 90.441406 122.792969 90.367188 130.292969 90.589844 137.808594 C 90.765625 139.648438 87.574219 136.597656 87.167969 136.609375 C 79.0625 132.539062 70.671875 130.652344 61.738281 130.976562 C 43.515625 131.097656 37.78125 146.519531 54.75 154.613281 C 74.152344 163.019531 99.273438 172.09375 95.398438 198.992188 C 92.585938 226.945312 58.6875 230.59375 36.21875 227.042969 C 30.199219 226.199219 24.289062 224.484375 18.476562 221.890625 C 19.347656 214 17.734375 203.621094 19.125 196.757812 C 31.679688 207.105469 54.867188 214.335938 67.714844 201.371094 C 76.316406 180.695312 31.824219 178.84375 23.464844 162.65625 C -0.0703125 117.191406 55.421875 102 90.8125 115.316406 Z M 90.8125 115.316406 "/></g><g style="fill:#000000;fill-opacity:1;"><g transform="translate(315.749984, 125.593072)"><path style="stroke:none" d="M 9.15625 -11.421875 L 9.15625 -9.53125 L 5.859375 -9.53125 L 5.859375 0 L 3.609375 0 L 3.609375 -9.53125 L 0.3125 -9.53125 L 0.3125 -11.421875 Z M 9.15625 -11.421875 "/></g></g><g style="fill:#000000;fill-opacity:1;"><g transform="translate(325.216421, 125.593072)"><path style="stroke:none" d="M 3.5625 0 L 1.484375 0 L 1.484375 -11.421875 L 4.4375 -11.421875 L 7.328125 -3.03125 L 7.5 -3.03125 L 10.375 -11.421875 L 13.25 -11.421875 L 13.25 0 L 11.109375 0 L 11.109375 -7.546875 L 10.921875 -7.578125 L 8.28125 0 L 6.390625 0 L 3.75 -7.578125 L 3.5625 -7.546875 Z M 3.5625 0 "/></g></g></g></svg>